<svg width="26" height="26" viewBox="0 0 26 26" fill="none" xmlns="http://www.w3.org/2000/svg">
<g clip-path="url(#clip0_1164_529)">
<path d="M18.0427 12.7945C16.8232 13.3221 16.2639 14.7244 16.7934 15.9266C17.3229 17.1288 18.7408 17.6756 19.9603 17.148C21.1798 16.6204 21.7391 15.2182 21.2096 14.0159C20.68 12.8137 19.2622 12.2669 18.0427 12.7945Z" stroke="#B8952E" stroke-width="1.5948" stroke-linecap="round" stroke-linejoin="round"/>
<path d="M16.7635 14.1081L12.6676 12.5283" stroke="#B8952E" stroke-width="1.5948" stroke-linecap="round" stroke-linejoin="round"/>
<path d="M9.33629 20.8806L14.2834 8.47748" stroke="#B8952E" stroke-width="1.5948" stroke-linecap="round" stroke-linejoin="round"/>
<path d="M14.2073 4.08736C12.9878 4.61496 12.4285 6.01725 12.9581 7.21946C13.4876 8.42166 14.9055 8.96854 16.125 8.44093C17.3445 7.91333 17.9038 6.51105 17.3743 5.30884C16.8447 4.10663 15.4268 3.55976 14.2073 4.08736Z" stroke="#B8952E" stroke-width="1.5948" stroke-linecap="round" stroke-linejoin="round"/>
<path d="M9.71188 11.3882L4.22254 9.27102" stroke="#B8952E" stroke-width="1.5948" stroke-linecap="round" stroke-linejoin="round"/>
</g>
<defs>
<clipPath id="clip0_1164_529">
<rect width="19.2471" height="19.0288" fill="white" transform="matrix(-0.917788 0.397071 -0.403106 -0.915153 25.3354 17.4143)"/>
</clipPath>
</defs>
</svg>
